# MagicaVoxel @ Ephtracy

# group
g blue_crate

# material
mtllib blue_crate.mtl
usemtl palette

# normals
vn -1 0 0
vn 1 0 0
vn 0 0 1
vn 0 0 -1
vn 0 -1 0
vn 0 1 0

# texcoords
vt 0.0644531 0.5
vt 0.232422 0.5
vt 0.419922 0.5
vt 0.927734 0.5
vt 0.970703 0.5

# verts
v -11 0 10
v -11 0 -10
v -11 2 8
v -11 2 -8
v -11 18 8
v -11 18 -8
v -11 20 10
v -11 20 -10
v -10 2 8
v -10 2 -8
v -10 3 7
v -10 3 -7
v -10 17 7
v -10 17 -7
v -10 18 8
v -10 18 -8
v -9 3 7
v -9 3 3
v -9 3 2
v -9 3 -2
v -9 3 -3
v -9 3 -7
v -9 17 7
v -9 17 3
v -9 17 2
v -9 17 -2
v -9 17 -3
v -9 17 -7
v 6 1 7
v 6 1 -7
v 6 2 7
v 6 2 6
v 6 2 -6
v 6 2 -7
v 6 3 9
v 6 3 8
v 6 3 -8
v 6 3 -9
v 6 17 9
v 6 17 8
v 6 17 -8
v 6 17 -9
v 6 18 7
v 6 18 6
v 6 18 -6
v 6 18 -7
v 6 19 7
v 6 19 -7
v 7 0 8
v 7 0 -8
v 7 1 8
v 7 1 -8
v 7 2 10
v 7 2 9
v 7 2 -9
v 7 2 -10
v 7 18 10
v 7 18 9
v 7 18 -9
v 7 18 -10
v 7 19 8
v 7 19 -8
v 7 20 8
v 7 20 -8
v -9 0 8
v -9 0 -8
v -9 1 8
v -9 1 -8
v -9 2 10
v -9 2 9
v -9 2 -9
v -9 2 -10
v -9 18 10
v -9 18 9
v -9 18 -9
v -9 18 -10
v -9 19 8
v -9 19 -8
v -9 20 8
v -9 20 -8
v -8 1 7
v -8 1 -7
v -8 2 7
v -8 2 6
v -8 2 -6
v -8 2 -7
v -8 3 9
v -8 3 8
v -8 3 -8
v -8 3 -9
v -8 17 9
v -8 17 8
v -8 17 -8
v -8 17 -9
v -8 18 7
v -8 18 6
v -8 18 -6
v -8 18 -7
v -8 19 7
v -8 19 -7
v 7 3 7
v 7 3 3
v 7 3 2
v 7 3 -2
v 7 3 -3
v 7 3 -7
v 7 17 7
v 7 17 3
v 7 17 2
v 7 17 -2
v 7 17 -3
v 7 17 -7
v 8 2 8
v 8 2 -8
v 8 3 7
v 8 3 -7
v 8 17 7
v 8 17 -7
v 8 18 8
v 8 18 -8
v 9 0 10
v 9 0 -10
v 9 2 8
v 9 2 -8
v 9 18 8
v 9 18 -8
v 9 20 10
v 9 20 -10
v -11 0 10
v -11 20 10
v -9 2 10
v -9 18 10
v 7 2 10
v 7 18 10
v 9 0 10
v 9 20 10
v -9 2 9
v -9 18 9
v -8 3 9
v -8 17 9
v 6 3 9
v 6 17 9
v 7 2 9
v 7 18 9
v -8 3 8
v -8 17 8
v -4 3 8
v -4 17 8
v -3 3 8
v -3 17 8
v 1 3 8
v 1 17 8
v 2 3 8
v 2 17 8
v 6 3 8
v 6 17 8
v -10 3 -7
v -10 17 -7
v -9 3 -7
v -9 17 -7
v -8 1 -7
v -8 2 -7
v -8 18 -7
v -8 19 -7
v -7 2 -7
v -7 18 -7
v 5 2 -7
v 5 18 -7
v 6 1 -7
v 6 2 -7
v 6 18 -7
v 6 19 -7
v 7 3 -7
v 7 17 -7
v 8 3 -7
v 8 17 -7
v -11 2 -8
v -11 18 -8
v -10 2 -8
v -10 18 -8
v -9 0 -8
v -9 1 -8
v -9 19 -8
v -9 20 -8
v 7 0 -8
v 7 1 -8
v 7 19 -8
v 7 20 -8
v 8 2 -8
v 8 18 -8
v 9 2 -8
v 9 18 -8
v -11 2 8
v -11 18 8
v -10 2 8
v -10 18 8
v -9 0 8
v -9 1 8
v -9 19 8
v -9 20 8
v 7 0 8
v 7 1 8
v 7 19 8
v 7 20 8
v 8 2 8
v 8 18 8
v 9 2 8
v 9 18 8
v -10 3 7
v -10 17 7
v -9 3 7
v -9 17 7
v -8 1 7
v -8 2 7
v -8 18 7
v -8 19 7
v -7 2 7
v -7 18 7
v 5 2 7
v 5 18 7
v 6 1 7
v 6 2 7
v 6 18 7
v 6 19 7
v 7 3 7
v 7 17 7
v 8 3 7
v 8 17 7
v -8 3 -8
v -8 17 -8
v -4 3 -8
v -4 17 -8
v -3 3 -8
v -3 17 -8
v 1 3 -8
v 1 17 -8
v 2 3 -8
v 2 17 -8
v 6 3 -8
v 6 17 -8
v -9 2 -9
v -9 18 -9
v -8 3 -9
v -8 17 -9
v 6 3 -9
v 6 17 -9
v 7 2 -9
v 7 18 -9
v -11 0 -10
v -11 20 -10
v -9 2 -10
v -9 18 -10
v 7 2 -10
v 7 18 -10
v 9 0 -10
v 9 20 -10
v -11 0 10
v 9 0 10
v -9 0 8
v 7 0 8
v -9 0 -8
v 7 0 -8
v -11 0 -10
v 9 0 -10
v -9 1 8
v 7 1 8
v -8 1 7
v 6 1 7
v -8 1 -7
v 6 1 -7
v -9 1 -8
v 7 1 -8
v -8 2 7
v -7 2 7
v 5 2 7
v 6 2 7
v -8 2 6
v -7 2 6
v -6 2 6
v 4 2 6
v 5 2 6
v 6 2 6
v -7 2 5
v -6 2 5
v -5 2 5
v 3 2 5
v 4 2 5
v 5 2 5
v -6 2 4
v -5 2 4
v -4 2 4
v 2 2 4
v 3 2 4
v 4 2 4
v -5 2 3
v -4 2 3
v -3 2 3
v 1 2 3
v 2 2 3
v 3 2 3
v -4 2 2
v -3 2 2
v -2 2 2
v 0 2 2
v 1 2 2
v 2 2 2
v -3 2 1
v -2 2 1
v 0 2 1
v 1 2 1
v -3 2 -1
v -2 2 -1
v 0 2 -1
v 1 2 -1
v -4 2 -2
v -3 2 -2
v -2 2 -2
v 0 2 -2
v 1 2 -2
v 2 2 -2
v -5 2 -3
v -4 2 -3
v -3 2 -3
v 1 2 -3
v 2 2 -3
v 3 2 -3
v -6 2 -4
v -5 2 -4
v -4 2 -4
v 2 2 -4
v 3 2 -4
v 4 2 -4
v -7 2 -5
v -6 2 -5
v -5 2 -5
v 3 2 -5
v 4 2 -5
v 5 2 -5
v -8 2 -6
v -7 2 -6
v -6 2 -6
v 4 2 -6
v 5 2 -6
v 6 2 -6
v -8 2 -7
v -7 2 -7
v 5 2 -7
v 6 2 -7
v -8 17 9
v 6 17 9
v -8 17 8
v -4 17 8
v -3 17 8
v 1 17 8
v 2 17 8
v 6 17 8
v -10 17 7
v -9 17 7
v 7 17 7
v 8 17 7
v -9 17 3
v 7 17 3
v -9 17 2
v 7 17 2
v -9 17 -2
v 7 17 -2
v -9 17 -3
v 7 17 -3
v -10 17 -7
v -9 17 -7
v 7 17 -7
v 8 17 -7
v -8 17 -8
v -4 17 -8
v -3 17 -8
v 1 17 -8
v 2 17 -8
v 6 17 -8
v -8 17 -9
v 6 17 -9
v -9 18 10
v 7 18 10
v -9 18 9
v 7 18 9
v -11 18 8
v -10 18 8
v 8 18 8
v 9 18 8
v -11 18 -8
v -10 18 -8
v 8 18 -8
v 9 18 -8
v -9 18 -9
v 7 18 -9
v -9 18 -10
v 7 18 -10
v -9 2 10
v 7 2 10
v -9 2 9
v 7 2 9
v -11 2 8
v -10 2 8
v 8 2 8
v 9 2 8
v -11 2 -8
v -10 2 -8
v 8 2 -8
v 9 2 -8
v -9 2 -9
v 7 2 -9
v -9 2 -10
v 7 2 -10
v -8 3 9
v 6 3 9
v -8 3 8
v -4 3 8
v -3 3 8
v 1 3 8
v 2 3 8
v 6 3 8
v -10 3 7
v -9 3 7
v 7 3 7
v 8 3 7
v -9 3 3
v 7 3 3
v -9 3 2
v 7 3 2
v -9 3 -2
v 7 3 -2
v -9 3 -3
v 7 3 -3
v -10 3 -7
v -9 3 -7
v 7 3 -7
v 8 3 -7
v -8 3 -8
v -4 3 -8
v -3 3 -8
v 1 3 -8
v 2 3 -8
v 6 3 -8
v -8 3 -9
v 6 3 -9
v -8 18 7
v -7 18 7
v 5 18 7
v 6 18 7
v -8 18 6
v -7 18 6
v -6 18 6
v 4 18 6
v 5 18 6
v 6 18 6
v -7 18 5
v -6 18 5
v -5 18 5
v 3 18 5
v 4 18 5
v 5 18 5
v -6 18 4
v -5 18 4
v -4 18 4
v 2 18 4
v 3 18 4
v 4 18 4
v -5 18 3
v -4 18 3
v -3 18 3
v 1 18 3
v 2 18 3
v 3 18 3
v -4 18 2
v -3 18 2
v -2 18 2
v 0 18 2
v 1 18 2
v 2 18 2
v -3 18 1
v -2 18 1
v 0 18 1
v 1 18 1
v -3 18 -1
v -2 18 -1
v 0 18 -1
v 1 18 -1
v -4 18 -2
v -3 18 -2
v -2 18 -2
v 0 18 -2
v 1 18 -2
v 2 18 -2
v -5 18 -3
v -4 18 -3
v -3 18 -3
v 1 18 -3
v 2 18 -3
v 3 18 -3
v -6 18 -4
v -5 18 -4
v -4 18 -4
v 2 18 -4
v 3 18 -4
v 4 18 -4
v -7 18 -5
v -6 18 -5
v -5 18 -5
v 3 18 -5
v 4 18 -5
v 5 18 -5
v -8 18 -6
v -7 18 -6
v -6 18 -6
v 4 18 -6
v 5 18 -6
v 6 18 -6
v -8 18 -7
v -7 18 -7
v 5 18 -7
v 6 18 -7
v -9 19 8
v 7 19 8
v -8 19 7
v 6 19 7
v -8 19 -7
v 6 19 -7
v -9 19 -8
v 7 19 -8
v -11 20 10
v 9 20 10
v -9 20 8
v 7 20 8
v -9 20 -8
v 7 20 -8
v -11 20 -10
v 9 20 -10

# faces
f 3/4/1 2/4/1 1/4/1
f 4/4/1 2/4/1 3/4/1
f 5/4/1 3/4/1 1/4/1
f 6/4/1 2/4/1 4/4/1
f 7/4/1 5/4/1 1/4/1
f 7/4/1 6/4/1 5/4/1
f 8/4/1 2/4/1 6/4/1
f 8/4/1 6/4/1 7/4/1
f 11/4/1 10/4/1 9/4/1
f 12/4/1 10/4/1 11/4/1
f 13/4/1 11/4/1 9/4/1
f 14/4/1 10/4/1 12/4/1
f 15/4/1 13/4/1 9/4/1
f 15/4/1 14/4/1 13/4/1
f 16/4/1 10/4/1 14/4/1
f 16/4/1 14/4/1 15/4/1
f 23/1/1 18/1/1 17/1/1
f 24/2/1 19/2/1 18/2/1
f 24/1/1 18/1/1 23/1/1
f 25/1/1 20/1/1 19/1/1
f 25/2/1 19/2/1 24/2/1
f 26/2/1 21/2/1 20/2/1
f 26/1/1 20/1/1 25/1/1
f 27/1/1 22/1/1 21/1/1
f 27/2/1 21/2/1 26/2/1
f 28/1/1 22/1/1 27/1/1
f 31/4/1 30/4/1 29/4/1
f 32/4/1 30/4/1 31/4/1
f 33/4/1 30/4/1 32/4/1
f 34/4/1 30/4/1 33/4/1
f 39/4/1 36/4/1 35/4/1
f 40/4/1 36/4/1 39/4/1
f 41/4/1 38/4/1 37/4/1
f 42/4/1 38/4/1 41/4/1
f 47/4/1 44/4/1 43/4/1
f 47/4/1 46/4/1 45/4/1
f 47/4/1 45/4/1 44/4/1
f 48/4/1 46/4/1 47/4/1
f 51/4/1 50/4/1 49/4/1
f 52/4/1 50/4/1 51/4/1
f 57/4/1 54/4/1 53/4/1
f 58/4/1 54/4/1 57/4/1
f 59/4/1 56/4/1 55/4/1
f 60/4/1 56/4/1 59/4/1
f 63/4/1 62/4/1 61/4/1
f 64/4/1 62/4/1 63/4/1
f 65/4/2 66/4/2 67/4/2
f 67/4/2 66/4/2 68/4/2
f 69/4/2 70/4/2 73/4/2
f 73/4/2 70/4/2 74/4/2
f 71/4/2 72/4/2 75/4/2
f 75/4/2 72/4/2 76/4/2
f 77/4/2 78/4/2 79/4/2
f 79/4/2 78/4/2 80/4/2
f 81/4/2 82/4/2 83/4/2
f 83/4/2 82/4/2 84/4/2
f 84/4/2 82/4/2 85/4/2
f 85/4/2 82/4/2 86/4/2
f 87/4/2 88/4/2 91/4/2
f 91/4/2 88/4/2 92/4/2
f 89/4/2 90/4/2 93/4/2
f 93/4/2 90/4/2 94/4/2
f 95/4/2 96/4/2 99/4/2
f 97/4/2 98/4/2 99/4/2
f 96/4/2 97/4/2 99/4/2
f 99/4/2 98/4/2 100/4/2
f 101/1/2 102/1/2 107/1/2
f 102/2/2 103/2/2 108/2/2
f 107/1/2 102/1/2 108/1/2
f 103/1/2 104/1/2 109/1/2
f 108/2/2 103/2/2 109/2/2
f 104/2/2 105/2/2 110/2/2
f 109/1/2 104/1/2 110/1/2
f 105/1/2 106/1/2 111/1/2
f 110/2/2 105/2/2 111/2/2
f 111/1/2 106/1/2 112/1/2
f 113/4/2 114/4/2 115/4/2
f 115/4/2 114/4/2 116/4/2
f 113/4/2 115/4/2 117/4/2
f 116/4/2 114/4/2 118/4/2
f 113/4/2 117/4/2 119/4/2
f 117/4/2 118/4/2 119/4/2
f 118/4/2 114/4/2 120/4/2
f 119/4/2 118/4/2 120/4/2
f 121/4/2 122/4/2 123/4/2
f 123/4/2 122/4/2 124/4/2
f 121/4/2 123/4/2 125/4/2
f 124/4/2 122/4/2 126/4/2
f 121/4/2 125/4/2 127/4/2
f 125/4/2 126/4/2 127/4/2
f 126/4/2 122/4/2 128/4/2
f 127/4/2 126/4/2 128/4/2
f 131/4/3 130/4/3 129/4/3
f 132/4/3 130/4/3 131/4/3
f 133/4/3 131/4/3 129/4/3
f 134/4/3 130/4/3 132/4/3
f 135/4/3 133/4/3 129/4/3
f 135/4/3 134/4/3 133/4/3
f 136/4/3 130/4/3 134/4/3
f 136/4/3 134/4/3 135/4/3
f 139/4/3 138/4/3 137/4/3
f 140/4/3 138/4/3 139/4/3
f 141/4/3 139/4/3 137/4/3
f 142/4/3 138/4/3 140/4/3
f 143/4/3 141/4/3 137/4/3
f 143/4/3 142/4/3 141/4/3
f 144/4/3 138/4/3 142/4/3
f 144/4/3 142/4/3 143/4/3
f 147/1/3 146/1/3 145/1/3
f 148/1/3 146/1/3 147/1/3
f 149/2/3 148/2/3 147/2/3
f 150/2/3 148/2/3 149/2/3
f 151/1/3 150/1/3 149/1/3
f 152/1/3 150/1/3 151/1/3
f 153/2/3 152/2/3 151/2/3
f 154/2/3 152/2/3 153/2/3
f 155/1/3 154/1/3 153/1/3
f 156/1/3 154/1/3 155/1/3
f 159/4/3 158/4/3 157/4/3
f 160/4/3 158/4/3 159/4/3
f 165/4/3 162/4/3 161/4/3
f 166/4/3 164/4/3 163/4/3
f 167/4/3 165/4/3 161/4/3
f 168/4/3 164/4/3 166/4/3
f 169/4/3 167/4/3 161/4/3
f 170/4/3 167/4/3 169/4/3
f 171/4/3 164/4/3 168/4/3
f 172/4/3 164/4/3 171/4/3
f 175/4/3 174/4/3 173/4/3
f 176/4/3 174/4/3 175/4/3
f 179/4/3 178/4/3 177/4/3
f 180/4/3 178/4/3 179/4/3
f 185/4/3 182/4/3 181/4/3
f 186/4/3 182/4/3 185/4/3
f 187/4/3 184/4/3 183/4/3
f 188/4/3 184/4/3 187/4/3
f 191/4/3 190/4/3 189/4/3
f 192/4/3 190/4/3 191/4/3
f 193/4/4 194/4/4 195/4/4
f 195/4/4 194/4/4 196/4/4
f 197/4/4 198/4/4 201/4/4
f 201/4/4 198/4/4 202/4/4
f 199/4/4 200/4/4 203/4/4
f 203/4/4 200/4/4 204/4/4
f 205/4/4 206/4/4 207/4/4
f 207/4/4 206/4/4 208/4/4
f 209/4/4 210/4/4 211/4/4
f 211/4/4 210/4/4 212/4/4
f 213/4/4 214/4/4 217/4/4
f 215/4/4 216/4/4 218/4/4
f 213/4/4 217/4/4 219/4/4
f 218/4/4 216/4/4 220/4/4
f 213/4/4 219/4/4 221/4/4
f 221/4/4 219/4/4 222/4/4
f 220/4/4 216/4/4 223/4/4
f 223/4/4 216/4/4 224/4/4
f 225/4/4 226/4/4 227/4/4
f 227/4/4 226/4/4 228/4/4
f 229/1/4 230/1/4 231/1/4
f 231/1/4 230/1/4 232/1/4
f 231/2/4 232/2/4 233/2/4
f 233/2/4 232/2/4 234/2/4
f 233/1/4 234/1/4 235/1/4
f 235/1/4 234/1/4 236/1/4
f 235/2/4 236/2/4 237/2/4
f 237/2/4 236/2/4 238/2/4
f 237/1/4 238/1/4 239/1/4
f 239/1/4 238/1/4 240/1/4
f 241/4/4 242/4/4 243/4/4
f 243/4/4 242/4/4 244/4/4
f 241/4/4 243/4/4 245/4/4
f 244/4/4 242/4/4 246/4/4
f 241/4/4 245/4/4 247/4/4
f 245/4/4 246/4/4 247/4/4
f 246/4/4 242/4/4 248/4/4
f 247/4/4 246/4/4 248/4/4
f 249/4/4 250/4/4 251/4/4
f 251/4/4 250/4/4 252/4/4
f 249/4/4 251/4/4 253/4/4
f 252/4/4 250/4/4 254/4/4
f 249/4/4 253/4/4 255/4/4
f 253/4/4 254/4/4 255/4/4
f 254/4/4 250/4/4 256/4/4
f 255/4/4 254/4/4 256/4/4
f 259/4/5 258/4/5 257/4/5
f 260/4/5 258/4/5 259/4/5
f 261/4/5 259/4/5 257/4/5
f 262/4/5 258/4/5 260/4/5
f 263/4/5 261/4/5 257/4/5
f 263/4/5 262/4/5 261/4/5
f 264/4/5 258/4/5 262/4/5
f 264/4/5 262/4/5 263/4/5
f 267/4/5 266/4/5 265/4/5
f 268/4/5 266/4/5 267/4/5
f 269/4/5 267/4/5 265/4/5
f 270/4/5 266/4/5 268/4/5
f 271/4/5 269/4/5 265/4/5
f 271/4/5 270/4/5 269/4/5
f 272/4/5 266/4/5 270/4/5
f 272/4/5 270/4/5 271/4/5
f 277/2/5 274/2/5 273/2/5
f 278/1/5 275/1/5 274/1/5
f 278/2/5 274/2/5 277/2/5
f 279/1/5 275/1/5 278/1/5
f 280/1/5 275/1/5 279/1/5
f 281/2/5 276/2/5 275/2/5
f 281/1/5 275/1/5 280/1/5
f 282/2/5 276/2/5 281/2/5
f 283/1/5 278/1/5 277/1/5
f 283/2/5 279/2/5 278/2/5
f 284/1/5 280/1/5 279/1/5
f 284/2/5 279/2/5 283/2/5
f 285/1/5 280/1/5 284/1/5
f 286/1/5 280/1/5 285/1/5
f 287/2/5 281/2/5 280/2/5
f 287/1/5 280/1/5 286/1/5
f 288/1/5 282/1/5 281/1/5
f 288/2/5 281/2/5 287/2/5
f 289/1/5 284/1/5 283/1/5
f 289/2/5 285/2/5 284/2/5
f 290/1/5 286/1/5 285/1/5
f 290/2/5 285/2/5 289/2/5
f 291/1/5 286/1/5 290/1/5
f 292/1/5 286/1/5 291/1/5
f 293/2/5 287/2/5 286/2/5
f 293/1/5 286/1/5 292/1/5
f 294/1/5 288/1/5 287/1/5
f 294/2/5 287/2/5 293/2/5
f 295/1/5 290/1/5 289/1/5
f 295/2/5 291/2/5 290/2/5
f 296/1/5 292/1/5 291/1/5
f 296/2/5 291/2/5 295/2/5
f 297/1/5 292/1/5 296/1/5
f 298/1/5 292/1/5 297/1/5
f 299/2/5 293/2/5 292/2/5
f 299/1/5 292/1/5 298/1/5
f 300/1/5 294/1/5 293/1/5
f 300/2/5 293/2/5 299/2/5
f 301/1/5 296/1/5 295/1/5
f 301/2/5 297/2/5 296/2/5
f 302/1/5 298/1/5 297/1/5
f 302/2/5 297/2/5 301/2/5
f 303/1/5 298/1/5 302/1/5
f 304/1/5 298/1/5 303/1/5
f 305/2/5 299/2/5 298/2/5
f 305/1/5 298/1/5 304/1/5
f 306/1/5 300/1/5 299/1/5
f 306/2/5 299/2/5 305/2/5
f 307/1/5 302/1/5 301/1/5
f 307/2/5 303/2/5 302/2/5
f 308/1/5 304/1/5 303/1/5
f 308/2/5 303/2/5 307/2/5
f 309/2/5 305/2/5 304/2/5
f 309/1/5 304/1/5 308/1/5
f 310/1/5 306/1/5 305/1/5
f 310/2/5 305/2/5 309/2/5
f 311/1/5 307/1/5 301/1/5
f 311/1/5 308/1/5 307/1/5
f 312/2/5 309/2/5 308/2/5
f 312/1/5 308/1/5 311/1/5
f 313/1/5 310/1/5 309/1/5
f 313/2/5 309/2/5 312/2/5
f 314/1/5 306/1/5 310/1/5
f 314/1/5 310/1/5 313/1/5
f 315/1/5 301/1/5 295/1/5
f 315/1/5 311/1/5 301/1/5
f 316/2/5 312/2/5 311/2/5
f 316/1/5 311/1/5 315/1/5
f 317/1/5 313/1/5 312/1/5
f 317/2/5 312/2/5 316/2/5
f 318/2/5 314/2/5 313/2/5
f 318/1/5 313/1/5 317/1/5
f 319/1/5 306/1/5 314/1/5
f 319/2/5 314/2/5 318/2/5
f 320/1/5 300/1/5 306/1/5
f 320/1/5 306/1/5 319/1/5
f 321/1/5 295/1/5 289/1/5
f 321/1/5 315/1/5 295/1/5
f 322/2/5 316/2/5 315/2/5
f 322/1/5 315/1/5 321/1/5
f 323/1/5 318/1/5 317/1/5
f 323/2/5 316/2/5 322/2/5
f 323/1/5 319/1/5 318/1/5
f 323/1/5 317/1/5 316/1/5
f 324/2/5 320/2/5 319/2/5
f 324/1/5 319/1/5 323/1/5
f 325/1/5 300/1/5 320/1/5
f 325/2/5 320/2/5 324/2/5
f 326/1/5 294/1/5 300/1/5
f 326/1/5 300/1/5 325/1/5
f 327/1/5 289/1/5 283/1/5
f 327/1/5 321/1/5 289/1/5
f 328/2/5 322/2/5 321/2/5
f 328/1/5 321/1/5 327/1/5
f 329/1/5 324/1/5 323/1/5
f 329/2/5 322/2/5 328/2/5
f 329/1/5 325/1/5 324/1/5
f 329/1/5 323/1/5 322/1/5
f 330/2/5 326/2/5 325/2/5
f 330/1/5 325/1/5 329/1/5
f 331/1/5 294/1/5 326/1/5
f 331/2/5 326/2/5 330/2/5
f 332/1/5 288/1/5 294/1/5
f 332/1/5 294/1/5 331/1/5
f 333/1/5 283/1/5 277/1/5
f 333/1/5 327/1/5 283/1/5
f 334/2/5 328/2/5 327/2/5
f 334/1/5 327/1/5 333/1/5
f 335/1/5 330/1/5 329/1/5
f 335/2/5 328/2/5 334/2/5
f 335/1/5 331/1/5 330/1/5
f 335/1/5 329/1/5 328/1/5
f 336/2/5 332/2/5 331/2/5
f 336/1/5 331/1/5 335/1/5
f 337/1/5 288/1/5 332/1/5
f 337/2/5 332/2/5 336/2/5
f 338/1/5 282/1/5 288/1/5
f 338/1/5 288/1/5 337/1/5
f 339/1/5 333/1/5 277/1/5
f 340/2/5 334/2/5 333/2/5
f 340/1/5 333/1/5 339/1/5
f 341/1/5 336/1/5 335/1/5
f 341/2/5 334/2/5 340/2/5
f 341/1/5 337/1/5 336/1/5
f 341/1/5 335/1/5 334/1/5
f 342/2/5 338/2/5 337/2/5
f 342/1/5 337/1/5 341/1/5
f 343/1/5 282/1/5 338/1/5
f 343/2/5 338/2/5 342/2/5
f 344/1/5 282/1/5 343/1/5
f 345/2/5 340/2/5 339/2/5
f 346/1/5 342/1/5 341/1/5
f 346/2/5 340/2/5 345/2/5
f 346/1/5 341/1/5 340/1/5
f 346/1/5 343/1/5 342/1/5
f 347/2/5 344/2/5 343/2/5
f 347/1/5 343/1/5 346/1/5
f 348/2/5 344/2/5 347/2/5
f 351/4/5 350/4/5 349/4/5
f 352/4/5 350/4/5 351/4/5
f 353/4/5 350/4/5 352/4/5
f 354/4/5 350/4/5 353/4/5
f 355/4/5 350/4/5 354/4/5
f 356/4/5 350/4/5 355/4/5
f 361/4/5 358/4/5 357/4/5
f 362/4/5 360/4/5 359/4/5
f 363/4/5 361/4/5 357/4/5
f 364/4/5 360/4/5 362/4/5
f 365/4/5 363/4/5 357/4/5
f 366/4/5 360/4/5 364/4/5
f 367/4/5 365/4/5 357/4/5
f 368/4/5 360/4/5 366/4/5
f 369/4/5 367/4/5 357/4/5
f 370/4/5 367/4/5 369/4/5
f 371/4/5 360/4/5 368/4/5
f 372/4/5 360/4/5 371/4/5
f 379/4/5 374/4/5 373/4/5
f 379/4/5 378/4/5 377/4/5
f 379/4/5 377/4/5 376/4/5
f 379/4/5 376/4/5 375/4/5
f 379/4/5 375/4/5 374/4/5
f 380/4/5 378/4/5 379/4/5
f 383/4/5 382/4/5 381/4/5
f 384/4/5 382/4/5 383/4/5
f 389/4/5 386/4/5 385/4/5
f 390/4/5 386/4/5 389/4/5
f 391/4/5 388/4/5 387/4/5
f 392/4/5 388/4/5 391/4/5
f 395/4/5 394/4/5 393/4/5
f 396/4/5 394/4/5 395/4/5
f 397/4/6 398/4/6 399/4/6
f 399/4/6 398/4/6 400/4/6
f 401/4/6 402/4/6 405/4/6
f 405/4/6 402/4/6 406/4/6
f 403/4/6 404/4/6 407/4/6
f 407/4/6 404/4/6 408/4/6
f 409/4/6 410/4/6 411/4/6
f 411/4/6 410/4/6 412/4/6
f 413/4/6 414/4/6 415/4/6
f 415/4/6 414/4/6 416/4/6
f 416/4/6 414/4/6 417/4/6
f 417/4/6 414/4/6 418/4/6
f 418/4/6 414/4/6 419/4/6
f 419/4/6 414/4/6 420/4/6
f 421/4/6 422/4/6 425/4/6
f 423/4/6 424/4/6 426/4/6
f 421/4/6 425/4/6 427/4/6
f 426/4/6 424/4/6 428/4/6
f 421/4/6 427/4/6 429/4/6
f 428/4/6 424/4/6 430/4/6
f 421/4/6 429/4/6 431/4/6
f 430/4/6 424/4/6 432/4/6
f 421/4/6 431/4/6 433/4/6
f 433/4/6 431/4/6 434/4/6
f 432/4/6 424/4/6 435/4/6
f 435/4/6 424/4/6 436/4/6
f 437/4/6 438/4/6 443/4/6
f 441/4/6 442/4/6 443/4/6
f 440/4/6 441/4/6 443/4/6
f 439/4/6 440/4/6 443/4/6
f 438/4/6 439/4/6 443/4/6
f 443/4/6 442/4/6 444/4/6
f 445/2/6 446/2/6 449/2/6
f 446/1/6 447/1/6 450/1/6
f 449/2/6 446/2/6 450/2/6
f 450/1/6 447/1/6 451/1/6
f 451/1/6 447/1/6 452/1/6
f 447/2/6 448/2/6 453/2/6
f 452/1/6 447/1/6 453/1/6
f 453/2/6 448/2/6 454/2/6
f 449/1/6 450/1/6 455/1/6
f 450/2/6 451/2/6 455/2/6
f 451/1/6 452/1/6 456/1/6
f 455/2/6 451/2/6 456/2/6
f 456/1/6 452/1/6 457/1/6
f 457/1/6 452/1/6 458/1/6
f 452/2/6 453/2/6 459/2/6
f 458/1/6 452/1/6 459/1/6
f 453/1/6 454/1/6 460/1/6
f 459/2/6 453/2/6 460/2/6
f 455/1/6 456/1/6 461/1/6
f 456/2/6 457/2/6 461/2/6
f 457/1/6 458/1/6 462/1/6
f 461/2/6 457/2/6 462/2/6
f 462/1/6 458/1/6 463/1/6
f 463/1/6 458/1/6 464/1/6
f 458/2/6 459/2/6 465/2/6
f 464/1/6 458/1/6 465/1/6
f 459/1/6 460/1/6 466/1/6
f 465/2/6 459/2/6 466/2/6
f 461/1/6 462/1/6 467/1/6
f 462/2/6 463/2/6 467/2/6
f 463/1/6 464/1/6 468/1/6
f 467/2/6 463/2/6 468/2/6
f 468/1/6 464/1/6 469/1/6
f 469/1/6 464/1/6 470/1/6
f 464/2/6 465/2/6 471/2/6
f 470/1/6 464/1/6 471/1/6
f 465/1/6 466/1/6 472/1/6
f 471/2/6 465/2/6 472/2/6
f 467/1/6 468/1/6 473/1/6
f 468/2/6 469/2/6 473/2/6
f 469/1/6 470/1/6 474/1/6
f 473/2/6 469/2/6 474/2/6
f 474/1/6 470/1/6 475/1/6
f 475/1/6 470/1/6 476/1/6
f 470/2/6 471/2/6 477/2/6
f 476/1/6 470/1/6 477/1/6
f 471/1/6 472/1/6 478/1/6
f 477/2/6 471/2/6 478/2/6
f 473/1/6 474/1/6 479/1/6
f 474/2/6 475/2/6 479/2/6
f 475/1/6 476/1/6 480/1/6
f 479/2/6 475/2/6 480/2/6
f 476/2/6 477/2/6 481/2/6
f 480/1/6 476/1/6 481/1/6
f 477/1/6 478/1/6 482/1/6
f 481/2/6 477/2/6 482/2/6
f 473/1/6 479/1/6 483/1/6
f 479/1/6 480/1/6 483/1/6
f 480/2/6 481/2/6 484/2/6
f 483/1/6 480/1/6 484/1/6
f 481/1/6 482/1/6 485/1/6
f 484/2/6 481/2/6 485/2/6
f 482/1/6 478/1/6 486/1/6
f 485/1/6 482/1/6 486/1/6
f 467/1/6 473/1/6 487/1/6
f 473/1/6 483/1/6 487/1/6
f 483/2/6 484/2/6 488/2/6
f 487/1/6 483/1/6 488/1/6
f 484/1/6 485/1/6 489/1/6
f 488/2/6 484/2/6 489/2/6
f 485/2/6 486/2/6 490/2/6
f 489/1/6 485/1/6 490/1/6
f 486/1/6 478/1/6 491/1/6
f 490/2/6 486/2/6 491/2/6
f 478/1/6 472/1/6 492/1/6
f 491/1/6 478/1/6 492/1/6
f 461/1/6 467/1/6 493/1/6
f 467/1/6 487/1/6 493/1/6
f 487/2/6 488/2/6 494/2/6
f 493/1/6 487/1/6 494/1/6
f 489/1/6 490/1/6 495/1/6
f 494/2/6 488/2/6 495/2/6
f 490/1/6 491/1/6 495/1/6
f 488/1/6 489/1/6 495/1/6
f 491/2/6 492/2/6 496/2/6
f 495/1/6 491/1/6 496/1/6
f 492/1/6 472/1/6 497/1/6
f 496/2/6 492/2/6 497/2/6
f 472/1/6 466/1/6 498/1/6
f 497/1/6 472/1/6 498/1/6
f 455/1/6 461/1/6 499/1/6
f 461/1/6 493/1/6 499/1/6
f 493/2/6 494/2/6 500/2/6
f 499/1/6 493/1/6 500/1/6
f 495/1/6 496/1/6 501/1/6
f 500/2/6 494/2/6 501/2/6
f 496/1/6 497/1/6 501/1/6
f 494/1/6 495/1/6 501/1/6
f 497/2/6 498/2/6 502/2/6
f 501/1/6 497/1/6 502/1/6
f 498/1/6 466/1/6 503/1/6
f 502/2/6 498/2/6 503/2/6
f 466/1/6 460/1/6 504/1/6
f 503/1/6 466/1/6 504/1/6
f 449/1/6 455/1/6 505/1/6
f 455/1/6 499/1/6 505/1/6
f 499/2/6 500/2/6 506/2/6
f 505/1/6 499/1/6 506/1/6
f 501/1/6 502/1/6 507/1/6
f 506/2/6 500/2/6 507/2/6
f 502/1/6 503/1/6 507/1/6
f 500/1/6 501/1/6 507/1/6
f 503/2/6 504/2/6 508/2/6
f 507/1/6 503/1/6 508/1/6
f 504/1/6 460/1/6 509/1/6
f 508/2/6 504/2/6 509/2/6
f 460/1/6 454/1/6 510/1/6
f 509/1/6 460/1/6 510/1/6
f 449/1/6 505/1/6 511/1/6
f 505/2/6 506/2/6 512/2/6
f 511/1/6 505/1/6 512/1/6
f 507/1/6 508/1/6 513/1/6
f 512/2/6 506/2/6 513/2/6
f 508/1/6 509/1/6 513/1/6
f 506/1/6 507/1/6 513/1/6
f 509/2/6 510/2/6 514/2/6
f 513/1/6 509/1/6 514/1/6
f 510/1/6 454/1/6 515/1/6
f 514/2/6 510/2/6 515/2/6
f 515/1/6 454/1/6 516/1/6
f 511/2/6 512/2/6 517/2/6
f 513/1/6 514/1/6 518/1/6
f 517/2/6 512/2/6 518/2/6
f 512/1/6 513/1/6 518/1/6
f 514/1/6 515/1/6 518/1/6
f 515/2/6 516/2/6 519/2/6
f 518/1/6 515/1/6 519/1/6
f 519/2/6 516/2/6 520/2/6
f 521/4/6 522/4/6 523/4/6
f 523/4/6 522/4/6 524/4/6
f 521/4/6 523/4/6 525/4/6
f 524/4/6 522/4/6 526/4/6
f 521/4/6 525/4/6 527/4/6
f 525/4/6 526/4/6 527/4/6
f 526/4/6 522/4/6 528/4/6
f 527/4/6 526/4/6 528/4/6
f 529/4/6 530/4/6 531/4/6
f 531/4/6 530/4/6 532/4/6
f 529/4/6 531/4/6 533/4/6
f 532/4/6 530/4/6 534/4/6
f 529/4/6 533/4/6 535/4/6
f 533/4/6 534/4/6 535/4/6
f 534/4/6 530/4/6 536/4/6
f 535/4/6 534/4/6 536/4/6
