# MagicaVoxel @ Ephtracy

# group
g plus150

# material
mtllib plus150.mtl
usemtl palette

# normals
vn -1 0 0
vn 1 0 0
vn 0 0 1
vn 0 0 -1
vn 0 -1 0
vn 0 1 0

# texcoords
vt 0.970703 0.5
vt 0.974609 0.5
vt 0.978516 0.5

# verts
v -9 0 9.5
v -9 0 -9.5
v -9 1 8.5
v -9 1 -8.5
v -9 17 8.5
v -9 17 -8.5
v -9 18 9.5
v -9 18 -9.5
v -8 1 8.5
v -8 1 -8.5
v -8 4 2.5
v -8 4 -2.5
v -8 5 3.5
v -8 5 2.5
v -8 5 -2.5
v -8 5 -3.5
v -8 6 4.5
v -8 6 3.5
v -8 6 -3.5
v -8 6 -4.5
v -8 7 5.5
v -8 7 4.5
v -8 7 -4.5
v -8 7 -5.5
v -8 9 8.5
v -8 9 7.5
v -8 9 0.5
v -8 9 -0.5
v -8 10 8.5
v -8 10 7.5
v -8 10 0.5
v -8 10 -0.5
v -8 12 5.5
v -8 12 4.5
v -8 12 -4.5
v -8 12 -5.5
v -8 13 4.5
v -8 13 3.5
v -8 13 -3.5
v -8 13 -4.5
v -8 14 3.5
v -8 14 2.5
v -8 14 -2.5
v -8 14 -3.5
v -8 15 2.5
v -8 15 -2.5
v -8 17 8.5
v -8 17 -8.5
v 8 1 9.5
v 8 1 8.5
v 8 1 -8.5
v 8 1 -9.5
v 8 17 9.5
v 8 17 8.5
v 8 17 -8.5
v 8 17 -9.5
v -8 1 9.5
v -8 1 8.5
v -8 1 -8.5
v -8 1 -9.5
v -8 9 8.5
v -8 10 8.5
v -8 17 9.5
v -8 17 8.5
v -8 17 -8.5
v -8 17 -9.5
v 8 1 8.5
v 8 1 -8.5
v 8 3 2.5
v 8 3 -2.5
v 8 4 4.5
v 8 4 2.5
v 8 4 -2.5
v 8 4 -4.5
v 8 5 5.5
v 8 5 4.5
v 8 5 -4.5
v 8 5 -5.5
v 8 7 6.5
v 8 7 5.5
v 8 7 -5.5
v 8 7 -6.5
v 8 9 0.5
v 8 9 -0.5
v 8 10 0.5
v 8 10 -0.5
v 8 12 6.5
v 8 12 5.5
v 8 12 -5.5
v 8 12 -6.5
v 8 14 5.5
v 8 14 4.5
v 8 14 -4.5
v 8 14 -5.5
v 8 15 4.5
v 8 15 2.5
v 8 15 -2.5
v 8 15 -4.5
v 8 16 2.5
v 8 16 -2.5
v 8 17 8.5
v 8 17 -8.5
v 9 0 9.5
v 9 0 -9.5
v 9 1 8.5
v 9 1 -8.5
v 9 17 8.5
v 9 17 -8.5
v 9 18 9.5
v 9 18 -9.5
v -9 0 9.5
v -9 18 9.5
v -8 1 9.5
v -8 17 9.5
v 8 1 9.5
v 8 17 9.5
v 9 0 9.5
v 9 18 9.5
v -8 1 8.5
v -8 9 8.5
v -8 10 8.5
v -8 17 8.5
v -7 6 8.5
v -7 9 8.5
v -7 10 8.5
v -7 13 8.5
v -6 6 8.5
v -6 9 8.5
v -6 10 8.5
v -6 13 8.5
v -5 9 8.5
v -5 10 8.5
v -4 3 8.5
v -4 15 8.5
v -3 3 8.5
v -3 15 8.5
v -2 3 8.5
v -2 5 8.5
v -2 8 8.5
v -2 15 8.5
v -1 10 8.5
v -1 13 8.5
v 1 5 8.5
v 1 8 8.5
v 2 3 8.5
v 2 10 8.5
v 2 13 8.5
v 2 15 8.5
v 3 3 8.5
v 3 15 8.5
v 4 5 8.5
v 4 13 8.5
v 6 5 8.5
v 6 13 8.5
v 7 3 8.5
v 7 15 8.5
v 8 1 8.5
v 8 17 8.5
v -9 1 -8.5
v -9 17 -8.5
v -8 1 -8.5
v -8 17 -8.5
v 8 1 -8.5
v 8 17 -8.5
v 9 1 -8.5
v 9 17 -8.5
v -9 1 8.5
v -9 17 8.5
v -8 1 8.5
v -8 9 8.5
v -8 10 8.5
v -8 17 8.5
v 8 1 8.5
v 8 17 8.5
v 9 1 8.5
v 9 17 8.5
v -8 1 -8.5
v -8 17 -8.5
v -5 7 -8.5
v -5 12 -8.5
v -4 6 -8.5
v -4 7 -8.5
v -4 12 -8.5
v -4 13 -8.5
v -3 5 -8.5
v -3 6 -8.5
v -3 13 -8.5
v -3 14 -8.5
v -2 4 -8.5
v -2 5 -8.5
v -2 14 -8.5
v -2 15 -8.5
v 0 9 -8.5
v 0 10 -8.5
v 1 9 -8.5
v 1 10 -8.5
v 3 4 -8.5
v 3 5 -8.5
v 3 14 -8.5
v 3 15 -8.5
v 4 5 -8.5
v 4 6 -8.5
v 4 13 -8.5
v 4 14 -8.5
v 5 6 -8.5
v 5 7 -8.5
v 5 12 -8.5
v 5 13 -8.5
v 6 7 -8.5
v 6 12 -8.5
v 8 1 -8.5
v 8 17 -8.5
v -9 0 -9.5
v -9 18 -9.5
v -8 1 -9.5
v -8 17 -9.5
v 8 1 -9.5
v 8 17 -9.5
v 9 0 -9.5
v 9 18 -9.5
v -9 0 9.5
v 9 0 9.5
v -9 0 -9.5
v 9 0 -9.5
v -8 17 9.5
v 8 17 9.5
v -9 17 8.5
v -8 17 8.5
v 8 17 8.5
v 9 17 8.5
v -9 17 -8.5
v -8 17 -8.5
v 8 17 -8.5
v 9 17 -8.5
v -8 17 -9.5
v 8 17 -9.5
v -8 1 9.5
v 8 1 9.5
v -9 1 8.5
v -8 1 8.5
v 8 1 8.5
v 9 1 8.5
v -9 1 -8.5
v -8 1 -8.5
v 8 1 -8.5
v 9 1 -8.5
v -8 1 -9.5
v 8 1 -9.5
v -9 18 9.5
v 9 18 9.5
v -9 18 -9.5
v 9 18 -9.5

# faces
f 3/1/1 2/1/1 1/1/1
f 4/1/1 2/1/1 3/1/1
f 5/1/1 3/1/1 1/1/1
f 6/1/1 2/1/1 4/1/1
f 7/1/1 5/1/1 1/1/1
f 7/1/1 6/1/1 5/1/1
f 8/1/1 2/1/1 6/1/1
f 8/1/1 6/1/1 7/1/1
f 11/2/1 10/2/1 9/2/1
f 12/2/1 10/2/1 11/2/1
f 13/2/1 11/2/1 9/2/1
f 14/3/1 12/3/1 11/3/1
f 14/2/1 11/2/1 13/2/1
f 15/2/1 10/2/1 12/2/1
f 15/3/1 12/3/1 14/3/1
f 16/2/1 10/2/1 15/2/1
f 17/2/1 13/2/1 9/2/1
f 18/3/1 14/3/1 13/3/1
f 18/2/1 13/2/1 17/2/1
f 18/3/1 15/3/1 14/3/1
f 18/3/1 16/3/1 15/3/1
f 19/2/1 10/2/1 16/2/1
f 19/3/1 16/3/1 18/3/1
f 20/2/1 10/2/1 19/2/1
f 21/2/1 17/2/1 9/2/1
f 22/3/1 18/3/1 17/3/1
f 22/2/1 17/2/1 21/2/1
f 22/3/1 19/3/1 18/3/1
f 22/3/1 20/3/1 19/3/1
f 23/2/1 10/2/1 20/2/1
f 23/3/1 20/3/1 22/3/1
f 24/2/1 10/2/1 23/2/1
f 25/2/1 21/2/1 9/2/1
f 26/2/1 21/2/1 25/2/1
f 27/3/1 22/3/1 21/3/1
f 27/3/1 23/3/1 22/3/1
f 27/3/1 24/3/1 23/3/1
f 28/3/1 24/3/1 27/3/1
f 29/3/1 26/3/1 25/3/1
f 30/2/1 21/2/1 26/2/1
f 30/3/1 26/3/1 29/3/1
f 31/3/1 27/3/1 21/3/1
f 31/2/1 28/2/1 27/2/1
f 32/3/1 24/3/1 28/3/1
f 32/2/1 28/2/1 31/2/1
f 33/3/1 31/3/1 21/3/1
f 33/2/1 21/2/1 30/2/1
f 33/3/1 32/3/1 31/3/1
f 33/2/1 30/2/1 29/2/1
f 34/3/1 32/3/1 33/3/1
f 35/3/1 24/3/1 32/3/1
f 35/3/1 32/3/1 34/3/1
f 36/2/1 10/2/1 24/2/1
f 36/3/1 24/3/1 35/3/1
f 37/3/1 35/3/1 34/3/1
f 37/2/1 34/2/1 33/2/1
f 38/3/1 35/3/1 37/3/1
f 39/3/1 35/3/1 38/3/1
f 40/2/1 36/2/1 35/2/1
f 40/3/1 35/3/1 39/3/1
f 41/3/1 39/3/1 38/3/1
f 41/2/1 38/2/1 37/2/1
f 42/3/1 39/3/1 41/3/1
f 43/3/1 39/3/1 42/3/1
f 44/2/1 40/2/1 39/2/1
f 44/3/1 39/3/1 43/3/1
f 45/3/1 43/3/1 42/3/1
f 45/2/1 42/2/1 41/2/1
f 46/2/1 44/2/1 43/2/1
f 46/3/1 43/3/1 45/3/1
f 47/2/1 33/2/1 29/2/1
f 47/2/1 37/2/1 33/2/1
f 47/2/1 46/2/1 45/2/1
f 47/2/1 45/2/1 41/2/1
f 47/2/1 41/2/1 37/2/1
f 48/2/1 10/2/1 36/2/1
f 48/2/1 46/2/1 47/2/1
f 48/2/1 36/2/1 40/2/1
f 48/2/1 40/2/1 44/2/1
f 48/2/1 44/2/1 46/2/1
f 53/1/1 50/1/1 49/1/1
f 54/1/1 50/1/1 53/1/1
f 55/1/1 52/1/1 51/1/1
f 56/1/1 52/1/1 55/1/1
f 57/1/2 58/1/2 61/1/2
f 57/1/2 61/1/2 62/1/2
f 57/1/2 62/1/2 63/1/2
f 63/1/2 62/1/2 64/1/2
f 59/1/2 60/1/2 65/1/2
f 65/1/2 60/1/2 66/1/2
f 67/2/2 68/2/2 69/2/2
f 69/2/2 68/2/2 70/2/2
f 67/2/2 69/2/2 71/2/2
f 69/3/2 70/3/2 72/3/2
f 71/2/2 69/2/2 72/2/2
f 70/2/2 68/2/2 73/2/2
f 72/3/2 70/3/2 73/3/2
f 73/2/2 68/2/2 74/2/2
f 67/2/2 71/2/2 75/2/2
f 71/3/2 72/3/2 76/3/2
f 75/2/2 71/2/2 76/2/2
f 72/3/2 73/3/2 76/3/2
f 73/3/2 74/3/2 76/3/2
f 74/2/2 68/2/2 77/2/2
f 76/3/2 74/3/2 77/3/2
f 77/2/2 68/2/2 78/2/2
f 67/2/2 75/2/2 79/2/2
f 75/3/2 76/3/2 80/3/2
f 79/2/2 75/2/2 80/2/2
f 76/3/2 77/3/2 80/3/2
f 77/3/2 78/3/2 80/3/2
f 78/2/2 68/2/2 81/2/2
f 80/3/2 78/3/2 81/3/2
f 81/2/2 68/2/2 82/2/2
f 79/3/2 80/3/2 83/3/2
f 80/3/2 81/3/2 83/3/2
f 81/3/2 82/3/2 83/3/2
f 83/3/2 82/3/2 84/3/2
f 79/3/2 83/3/2 85/3/2
f 83/2/2 84/2/2 85/2/2
f 84/3/2 82/3/2 86/3/2
f 85/2/2 84/2/2 86/2/2
f 67/2/2 79/2/2 87/2/2
f 79/3/2 85/3/2 87/3/2
f 85/3/2 86/3/2 87/3/2
f 87/3/2 86/3/2 88/3/2
f 86/3/2 82/3/2 89/3/2
f 88/3/2 86/3/2 89/3/2
f 82/2/2 68/2/2 90/2/2
f 89/3/2 82/3/2 90/3/2
f 88/3/2 89/3/2 91/3/2
f 87/2/2 88/2/2 91/2/2
f 91/3/2 89/3/2 92/3/2
f 92/3/2 89/3/2 93/3/2
f 89/2/2 90/2/2 94/2/2
f 93/3/2 89/3/2 94/3/2
f 92/3/2 93/3/2 95/3/2
f 91/2/2 92/2/2 95/2/2
f 95/3/2 93/3/2 96/3/2
f 96/3/2 93/3/2 97/3/2
f 93/2/2 94/2/2 98/2/2
f 97/3/2 93/3/2 98/3/2
f 96/3/2 97/3/2 99/3/2
f 95/2/2 96/2/2 99/2/2
f 97/2/2 98/2/2 100/2/2
f 99/3/2 97/3/2 100/3/2
f 67/2/2 87/2/2 101/2/2
f 87/2/2 91/2/2 101/2/2
f 99/2/2 100/2/2 101/2/2
f 95/2/2 99/2/2 101/2/2
f 91/2/2 95/2/2 101/2/2
f 90/2/2 68/2/2 102/2/2
f 101/2/2 100/2/2 102/2/2
f 94/2/2 90/2/2 102/2/2
f 98/2/2 94/2/2 102/2/2
f 100/2/2 98/2/2 102/2/2
f 103/1/2 104/1/2 105/1/2
f 105/1/2 104/1/2 106/1/2
f 103/1/2 105/1/2 107/1/2
f 106/1/2 104/1/2 108/1/2
f 103/1/2 107/1/2 109/1/2
f 107/1/2 108/1/2 109/1/2
f 108/1/2 104/1/2 110/1/2
f 109/1/2 108/1/2 110/1/2
f 113/1/3 112/1/3 111/1/3
f 114/1/3 112/1/3 113/1/3
f 115/1/3 113/1/3 111/1/3
f 116/1/3 112/1/3 114/1/3
f 117/1/3 115/1/3 111/1/3
f 117/1/3 116/1/3 115/1/3
f 118/1/3 112/1/3 116/1/3
f 118/1/3 116/1/3 117/1/3
f 123/2/3 120/2/3 119/2/3
f 124/3/3 121/3/3 120/3/3
f 124/2/3 120/2/3 123/2/3
f 125/2/3 122/2/3 121/2/3
f 125/3/3 121/3/3 124/3/3
f 126/2/3 122/2/3 125/2/3
f 127/3/3 124/3/3 123/3/3
f 127/2/3 123/2/3 119/2/3
f 127/3/3 126/3/3 125/3/3
f 127/3/3 125/3/3 124/3/3
f 128/3/3 126/3/3 127/3/3
f 129/3/3 126/3/3 128/3/3
f 130/2/3 122/2/3 126/2/3
f 130/3/3 126/3/3 129/3/3
f 131/3/3 129/3/3 128/3/3
f 131/2/3 128/2/3 127/2/3
f 132/2/3 130/2/3 129/2/3
f 132/3/3 129/3/3 131/3/3
f 133/2/3 127/2/3 119/2/3
f 133/2/3 131/2/3 127/2/3
f 133/2/3 132/2/3 131/2/3
f 134/2/3 122/2/3 130/2/3
f 134/2/3 132/2/3 133/2/3
f 134/2/3 130/2/3 132/2/3
f 135/2/3 133/2/3 119/2/3
f 135/3/3 134/3/3 133/3/3
f 136/2/3 122/2/3 134/2/3
f 136/3/3 134/3/3 135/3/3
f 137/2/3 135/2/3 119/2/3
f 137/2/3 136/2/3 135/2/3
f 138/2/3 136/2/3 137/2/3
f 139/2/3 136/2/3 138/2/3
f 140/2/3 122/2/3 136/2/3
f 140/2/3 136/2/3 139/2/3
f 141/3/3 140/3/3 139/3/3
f 142/3/3 140/3/3 141/3/3
f 143/2/3 139/2/3 138/2/3
f 143/3/3 138/3/3 137/3/3
f 144/3/3 141/3/3 139/3/3
f 144/2/3 139/2/3 143/2/3
f 145/2/3 137/2/3 119/2/3
f 145/3/3 143/3/3 137/3/3
f 145/3/3 144/3/3 143/3/3
f 146/3/3 141/3/3 144/3/3
f 146/3/3 144/3/3 145/3/3
f 146/2/3 142/2/3 141/2/3
f 147/3/3 140/3/3 142/3/3
f 147/2/3 142/2/3 146/2/3
f 148/2/3 122/2/3 140/2/3
f 148/3/3 140/3/3 147/3/3
f 149/2/3 146/2/3 145/2/3
f 149/2/3 145/2/3 119/2/3
f 149/2/3 148/2/3 147/2/3
f 149/2/3 147/2/3 146/2/3
f 150/2/3 122/2/3 148/2/3
f 150/2/3 148/2/3 149/2/3
f 151/3/3 150/3/3 149/3/3
f 152/3/3 150/3/3 151/3/3
f 153/3/3 151/3/3 149/3/3
f 153/2/3 152/2/3 151/2/3
f 154/3/3 150/3/3 152/3/3
f 154/2/3 152/2/3 153/2/3
f 155/2/3 149/2/3 119/2/3
f 155/3/3 153/3/3 149/3/3
f 155/3/3 154/3/3 153/3/3
f 156/3/3 150/3/3 154/3/3
f 156/3/3 154/3/3 155/3/3
f 156/2/3 122/2/3 150/2/3
f 157/2/3 155/2/3 119/2/3
f 157/2/3 156/2/3 155/2/3
f 158/2/3 122/2/3 156/2/3
f 158/2/3 156/2/3 157/2/3
f 161/1/3 160/1/3 159/1/3
f 162/1/3 160/1/3 161/1/3
f 165/1/3 164/1/3 163/1/3
f 166/1/3 164/1/3 165/1/3
f 167/1/4 168/1/4 169/1/4
f 169/1/4 168/1/4 170/1/4
f 170/1/4 168/1/4 171/1/4
f 171/1/4 168/1/4 172/1/4
f 173/1/4 174/1/4 175/1/4
f 175/1/4 174/1/4 176/1/4
f 177/2/4 178/2/4 179/2/4
f 179/2/4 178/2/4 180/2/4
f 177/2/4 179/2/4 181/2/4
f 179/3/4 180/3/4 182/3/4
f 181/2/4 179/2/4 182/2/4
f 180/2/4 178/2/4 183/2/4
f 182/3/4 180/3/4 183/3/4
f 183/2/4 178/2/4 184/2/4
f 177/2/4 181/2/4 185/2/4
f 181/3/4 182/3/4 186/3/4
f 185/2/4 181/2/4 186/2/4
f 182/3/4 183/3/4 186/3/4
f 183/3/4 184/3/4 186/3/4
f 184/2/4 178/2/4 187/2/4
f 186/3/4 184/3/4 187/3/4
f 187/2/4 178/2/4 188/2/4
f 177/2/4 185/2/4 189/2/4
f 185/3/4 186/3/4 190/3/4
f 189/2/4 185/2/4 190/2/4
f 186/3/4 187/3/4 190/3/4
f 187/3/4 188/3/4 190/3/4
f 188/2/4 178/2/4 191/2/4
f 190/3/4 188/3/4 191/3/4
f 191/2/4 178/2/4 192/2/4
f 189/3/4 190/3/4 193/3/4
f 190/3/4 191/3/4 193/3/4
f 191/3/4 192/3/4 193/3/4
f 193/3/4 192/3/4 194/3/4
f 189/3/4 193/3/4 195/3/4
f 193/2/4 194/2/4 195/2/4
f 194/3/4 192/3/4 196/3/4
f 195/2/4 194/2/4 196/2/4
f 177/2/4 189/2/4 197/2/4
f 189/3/4 195/3/4 197/3/4
f 195/3/4 196/3/4 197/3/4
f 197/3/4 196/3/4 198/3/4
f 196/3/4 192/3/4 199/3/4
f 198/3/4 196/3/4 199/3/4
f 192/2/4 178/2/4 200/2/4
f 199/3/4 192/3/4 200/3/4
f 198/3/4 199/3/4 201/3/4
f 197/2/4 198/2/4 201/2/4
f 201/3/4 199/3/4 202/3/4
f 202/3/4 199/3/4 203/3/4
f 199/2/4 200/2/4 204/2/4
f 203/3/4 199/3/4 204/3/4
f 202/3/4 203/3/4 205/3/4
f 201/2/4 202/2/4 205/2/4
f 205/3/4 203/3/4 206/3/4
f 206/3/4 203/3/4 207/3/4
f 203/2/4 204/2/4 208/2/4
f 207/3/4 203/3/4 208/3/4
f 206/3/4 207/3/4 209/3/4
f 205/2/4 206/2/4 209/2/4
f 207/2/4 208/2/4 210/2/4
f 209/3/4 207/3/4 210/3/4
f 177/2/4 197/2/4 211/2/4
f 197/2/4 201/2/4 211/2/4
f 209/2/4 210/2/4 211/2/4
f 205/2/4 209/2/4 211/2/4
f 201/2/4 205/2/4 211/2/4
f 200/2/4 178/2/4 212/2/4
f 211/2/4 210/2/4 212/2/4
f 204/2/4 200/2/4 212/2/4
f 208/2/4 204/2/4 212/2/4
f 210/2/4 208/2/4 212/2/4
f 213/1/4 214/1/4 215/1/4
f 215/1/4 214/1/4 216/1/4
f 213/1/4 215/1/4 217/1/4
f 216/1/4 214/1/4 218/1/4
f 213/1/4 217/1/4 219/1/4
f 217/1/4 218/1/4 219/1/4
f 218/1/4 214/1/4 220/1/4
f 219/1/4 218/1/4 220/1/4
f 223/1/5 222/1/5 221/1/5
f 224/1/5 222/1/5 223/1/5
f 228/1/5 226/1/5 225/1/5
f 229/1/5 226/1/5 228/1/5
f 231/1/5 228/1/5 227/1/5
f 232/1/5 228/1/5 231/1/5
f 233/1/5 230/1/5 229/1/5
f 234/1/5 230/1/5 233/1/5
f 235/1/5 233/1/5 232/1/5
f 236/1/5 233/1/5 235/1/5
f 237/1/6 238/1/6 240/1/6
f 240/1/6 238/1/6 241/1/6
f 239/1/6 240/1/6 243/1/6
f 243/1/6 240/1/6 244/1/6
f 241/1/6 242/1/6 245/1/6
f 245/1/6 242/1/6 246/1/6
f 244/1/6 245/1/6 247/1/6
f 247/1/6 245/1/6 248/1/6
f 249/1/6 250/1/6 251/1/6
f 251/1/6 250/1/6 252/1/6
