# MagicaVoxel @ Ephtracy

# group
g red_crate

# material
mtllib red_crate.mtl
usemtl palette

# normals
vn -1 0 0
vn 1 0 0
vn 0 0 1
vn 0 0 -1
vn 0 -1 0
vn 0 1 0

# texcoords
vt 0.0644531 0.5
vt 0.232422 0.5
vt 0.419922 0.5
vt 0.970703 0.5

# verts
v -11 0 10
v -11 0 -10
v -11 2 8
v -11 2 -8
v -11 18 8
v -11 18 -8
v -11 20 10
v -11 20 -10
v -10 2 8
v -10 2 -8
v -10 3 7
v -10 3 -7
v -10 17 7
v -10 17 -7
v -10 18 8
v -10 18 -8
v -9 3 7
v -9 3 3
v -9 3 2
v -9 3 -2
v -9 3 -3
v -9 3 -7
v -9 17 7
v -9 17 3
v -9 17 2
v -9 17 -2
v -9 17 -3
v -9 17 -7
v 6 1 7
v 6 1 -7
v 6 2 7
v 6 2 6
v 6 2 -6
v 6 2 -7
v 6 3 9
v 6 3 8
v 6 3 -8
v 6 3 -9
v 6 17 9
v 6 17 8
v 6 17 -8
v 6 17 -9
v 6 18 7
v 6 18 6
v 6 18 -6
v 6 18 -7
v 6 19 7
v 6 19 -7
v 7 0 8
v 7 0 -8
v 7 1 8
v 7 1 -8
v 7 2 10
v 7 2 9
v 7 2 -9
v 7 2 -10
v 7 18 10
v 7 18 9
v 7 18 -9
v 7 18 -10
v 7 19 8
v 7 19 -8
v 7 20 8
v 7 20 -8
v -9 0 8
v -9 0 -8
v -9 1 8
v -9 1 -8
v -9 2 10
v -9 2 9
v -9 2 -9
v -9 2 -10
v -9 18 10
v -9 18 9
v -9 18 -9
v -9 18 -10
v -9 19 8
v -9 19 -8
v -9 20 8
v -9 20 -8
v -8 1 7
v -8 1 -7
v -8 2 7
v -8 2 6
v -8 2 -6
v -8 2 -7
v -8 3 9
v -8 3 8
v -8 3 -8
v -8 3 -9
v -8 17 9
v -8 17 8
v -8 17 -8
v -8 17 -9
v -8 18 7
v -8 18 6
v -8 18 -6
v -8 18 -7
v -8 19 7
v -8 19 -7
v 7 3 7
v 7 3 3
v 7 3 2
v 7 3 -2
v 7 3 -3
v 7 3 -7
v 7 17 7
v 7 17 3
v 7 17 2
v 7 17 -2
v 7 17 -3
v 7 17 -7
v 8 2 8
v 8 2 -8
v 8 3 7
v 8 3 -7
v 8 17 7
v 8 17 -7
v 8 18 8
v 8 18 -8
v 9 0 10
v 9 0 -10
v 9 2 8
v 9 2 -8
v 9 18 8
v 9 18 -8
v 9 20 10
v 9 20 -10
v -11 0 10
v -11 20 10
v -9 2 10
v -9 18 10
v 7 2 10
v 7 18 10
v 9 0 10
v 9 20 10
v -9 2 9
v -9 18 9
v -8 3 9
v -8 17 9
v 6 3 9
v 6 17 9
v 7 2 9
v 7 18 9
v -8 3 8
v -8 17 8
v -4 3 8
v -4 17 8
v -3 3 8
v -3 17 8
v 1 3 8
v 1 17 8
v 2 3 8
v 2 17 8
v 6 3 8
v 6 17 8
v -10 3 -7
v -10 17 -7
v -9 3 -7
v -9 17 -7
v -8 1 -7
v -8 2 -7
v -8 18 -7
v -8 19 -7
v -7 2 -7
v -7 18 -7
v 5 2 -7
v 5 18 -7
v 6 1 -7
v 6 2 -7
v 6 18 -7
v 6 19 -7
v 7 3 -7
v 7 17 -7
v 8 3 -7
v 8 17 -7
v -11 2 -8
v -11 18 -8
v -10 2 -8
v -10 18 -8
v -9 0 -8
v -9 1 -8
v -9 19 -8
v -9 20 -8
v 7 0 -8
v 7 1 -8
v 7 19 -8
v 7 20 -8
v 8 2 -8
v 8 18 -8
v 9 2 -8
v 9 18 -8
v -11 2 8
v -11 18 8
v -10 2 8
v -10 18 8
v -9 0 8
v -9 1 8
v -9 19 8
v -9 20 8
v 5 1 8
v 6 1 8
v 7 0 8
v 7 1 8
v 7 19 8
v 7 20 8
v 8 2 8
v 8 18 8
v 9 2 8
v 9 18 8
v -10 3 7
v -10 17 7
v -9 3 7
v -9 17 7
v -8 1 7
v -8 2 7
v -8 18 7
v -8 19 7
v -7 2 7
v -7 18 7
v 5 1 7
v 5 2 7
v 5 18 7
v 6 1 7
v 6 2 7
v 6 18 7
v 6 19 7
v 7 3 7
v 7 17 7
v 8 3 7
v 8 17 7
v -8 3 -8
v -8 17 -8
v -4 3 -8
v -4 17 -8
v -3 3 -8
v -3 17 -8
v 1 3 -8
v 1 17 -8
v 2 3 -8
v 2 17 -8
v 6 3 -8
v 6 17 -8
v -9 2 -9
v -9 18 -9
v -8 3 -9
v -8 17 -9
v 6 3 -9
v 6 17 -9
v 7 2 -9
v 7 18 -9
v -11 0 -10
v -11 20 -10
v -9 2 -10
v -9 18 -10
v 7 2 -10
v 7 18 -10
v 9 0 -10
v 9 20 -10
v -11 0 10
v 9 0 10
v -9 0 8
v 7 0 8
v -9 0 -8
v 7 0 -8
v -11 0 -10
v 9 0 -10
v -9 1 8
v 5 1 8
v 6 1 8
v 7 1 8
v -8 1 7
v 5 1 7
v 6 1 7
v -8 1 -7
v 6 1 -7
v -9 1 -8
v 7 1 -8
v -8 2 7
v -7 2 7
v 5 2 7
v 6 2 7
v -8 2 6
v -7 2 6
v -6 2 6
v 4 2 6
v 5 2 6
v 6 2 6
v -7 2 5
v -6 2 5
v -5 2 5
v 3 2 5
v 4 2 5
v 5 2 5
v -6 2 4
v -5 2 4
v -4 2 4
v 2 2 4
v 3 2 4
v 4 2 4
v -5 2 3
v -4 2 3
v -3 2 3
v 1 2 3
v 2 2 3
v 3 2 3
v -4 2 2
v -3 2 2
v -2 2 2
v 0 2 2
v 1 2 2
v 2 2 2
v -3 2 1
v -2 2 1
v 0 2 1
v 1 2 1
v -3 2 -1
v -2 2 -1
v 0 2 -1
v 1 2 -1
v -4 2 -2
v -3 2 -2
v -2 2 -2
v 0 2 -2
v 1 2 -2
v 2 2 -2
v -5 2 -3
v -4 2 -3
v -3 2 -3
v 1 2 -3
v 2 2 -3
v 3 2 -3
v -6 2 -4
v -5 2 -4
v -4 2 -4
v 2 2 -4
v 3 2 -4
v 4 2 -4
v -7 2 -5
v -6 2 -5
v -5 2 -5
v 3 2 -5
v 4 2 -5
v 5 2 -5
v -8 2 -6
v -7 2 -6
v -6 2 -6
v 4 2 -6
v 5 2 -6
v 6 2 -6
v -8 2 -7
v -7 2 -7
v 5 2 -7
v 6 2 -7
v -8 17 9
v 6 17 9
v -8 17 8
v -4 17 8
v -3 17 8
v 1 17 8
v 2 17 8
v 6 17 8
v -10 17 7
v -9 17 7
v 7 17 7
v 8 17 7
v -9 17 3
v 7 17 3
v -9 17 2
v 7 17 2
v -9 17 -2
v 7 17 -2
v -9 17 -3
v 7 17 -3
v -10 17 -7
v -9 17 -7
v 7 17 -7
v 8 17 -7
v -8 17 -8
v -4 17 -8
v -3 17 -8
v 1 17 -8
v 2 17 -8
v 6 17 -8
v -8 17 -9
v 6 17 -9
v -9 18 10
v 7 18 10
v -9 18 9
v 7 18 9
v -11 18 8
v -10 18 8
v 8 18 8
v 9 18 8
v -11 18 -8
v -10 18 -8
v 8 18 -8
v 9 18 -8
v -9 18 -9
v 7 18 -9
v -9 18 -10
v 7 18 -10
v -9 2 10
v 7 2 10
v -9 2 9
v 7 2 9
v -11 2 8
v -10 2 8
v 8 2 8
v 9 2 8
v -11 2 -8
v -10 2 -8
v 8 2 -8
v 9 2 -8
v -9 2 -9
v 7 2 -9
v -9 2 -10
v 7 2 -10
v -8 3 9
v 6 3 9
v -8 3 8
v -4 3 8
v -3 3 8
v 1 3 8
v 2 3 8
v 6 3 8
v -10 3 7
v -9 3 7
v 7 3 7
v 8 3 7
v -9 3 3
v 7 3 3
v -9 3 2
v 7 3 2
v -9 3 -2
v 7 3 -2
v -9 3 -3
v 7 3 -3
v -10 3 -7
v -9 3 -7
v 7 3 -7
v 8 3 -7
v -8 3 -8
v -4 3 -8
v -3 3 -8
v 1 3 -8
v 2 3 -8
v 6 3 -8
v -8 3 -9
v 6 3 -9
v -8 18 7
v -7 18 7
v 5 18 7
v 6 18 7
v -8 18 6
v -7 18 6
v -6 18 6
v 4 18 6
v 5 18 6
v 6 18 6
v -7 18 5
v -6 18 5
v -5 18 5
v 3 18 5
v 4 18 5
v 5 18 5
v -6 18 4
v -5 18 4
v -4 18 4
v 2 18 4
v 3 18 4
v 4 18 4
v -5 18 3
v -4 18 3
v -3 18 3
v 1 18 3
v 2 18 3
v 3 18 3
v -4 18 2
v -3 18 2
v -2 18 2
v 0 18 2
v 1 18 2
v 2 18 2
v -3 18 1
v -2 18 1
v 0 18 1
v 1 18 1
v -3 18 -1
v -2 18 -1
v 0 18 -1
v 1 18 -1
v -4 18 -2
v -3 18 -2
v -2 18 -2
v 0 18 -2
v 1 18 -2
v 2 18 -2
v -5 18 -3
v -4 18 -3
v -3 18 -3
v 1 18 -3
v 2 18 -3
v 3 18 -3
v -6 18 -4
v -5 18 -4
v -4 18 -4
v 2 18 -4
v 3 18 -4
v 4 18 -4
v -7 18 -5
v -6 18 -5
v -5 18 -5
v 3 18 -5
v 4 18 -5
v 5 18 -5
v -8 18 -6
v -7 18 -6
v -6 18 -6
v 4 18 -6
v 5 18 -6
v 6 18 -6
v -8 18 -7
v -7 18 -7
v 5 18 -7
v 6 18 -7
v -9 19 8
v 7 19 8
v -8 19 7
v 6 19 7
v -8 19 -7
v 6 19 -7
v -9 19 -8
v 7 19 -8
v -11 20 10
v 9 20 10
v -9 20 8
v 7 20 8
v -9 20 -8
v 7 20 -8
v -11 20 -10
v 9 20 -10

# faces
f 3/3/1 2/3/1 1/3/1
f 4/3/1 2/3/1 3/3/1
f 5/3/1 3/3/1 1/3/1
f 6/3/1 2/3/1 4/3/1
f 7/3/1 5/3/1 1/3/1
f 7/3/1 6/3/1 5/3/1
f 8/3/1 2/3/1 6/3/1
f 8/3/1 6/3/1 7/3/1
f 11/3/1 10/3/1 9/3/1
f 12/3/1 10/3/1 11/3/1
f 13/3/1 11/3/1 9/3/1
f 14/3/1 10/3/1 12/3/1
f 15/3/1 13/3/1 9/3/1
f 15/3/1 14/3/1 13/3/1
f 16/3/1 10/3/1 14/3/1
f 16/3/1 14/3/1 15/3/1
f 23/1/1 18/1/1 17/1/1
f 24/2/1 19/2/1 18/2/1
f 24/1/1 18/1/1 23/1/1
f 25/1/1 20/1/1 19/1/1
f 25/2/1 19/2/1 24/2/1
f 26/2/1 21/2/1 20/2/1
f 26/1/1 20/1/1 25/1/1
f 27/1/1 22/1/1 21/1/1
f 27/2/1 21/2/1 26/2/1
f 28/1/1 22/1/1 27/1/1
f 31/3/1 30/3/1 29/3/1
f 32/3/1 30/3/1 31/3/1
f 33/3/1 30/3/1 32/3/1
f 34/3/1 30/3/1 33/3/1
f 39/3/1 36/3/1 35/3/1
f 40/3/1 36/3/1 39/3/1
f 41/3/1 38/3/1 37/3/1
f 42/3/1 38/3/1 41/3/1
f 47/3/1 44/3/1 43/3/1
f 47/3/1 46/3/1 45/3/1
f 47/3/1 45/3/1 44/3/1
f 48/3/1 46/3/1 47/3/1
f 51/3/1 50/3/1 49/3/1
f 52/3/1 50/3/1 51/3/1
f 57/3/1 54/3/1 53/3/1
f 58/3/1 54/3/1 57/3/1
f 59/3/1 56/3/1 55/3/1
f 60/3/1 56/3/1 59/3/1
f 63/3/1 62/3/1 61/3/1
f 64/3/1 62/3/1 63/3/1
f 65/3/2 66/3/2 67/3/2
f 67/3/2 66/3/2 68/3/2
f 69/3/2 70/3/2 73/3/2
f 73/3/2 70/3/2 74/3/2
f 71/3/2 72/3/2 75/3/2
f 75/3/2 72/3/2 76/3/2
f 77/3/2 78/3/2 79/3/2
f 79/3/2 78/3/2 80/3/2
f 81/3/2 82/3/2 83/3/2
f 83/3/2 82/3/2 84/3/2
f 84/3/2 82/3/2 85/3/2
f 85/3/2 82/3/2 86/3/2
f 87/3/2 88/3/2 91/3/2
f 91/3/2 88/3/2 92/3/2
f 89/3/2 90/3/2 93/3/2
f 93/3/2 90/3/2 94/3/2
f 95/3/2 96/3/2 99/3/2
f 97/3/2 98/3/2 99/3/2
f 96/3/2 97/3/2 99/3/2
f 99/3/2 98/3/2 100/3/2
f 101/1/2 102/1/2 107/1/2
f 102/2/2 103/2/2 108/2/2
f 107/1/2 102/1/2 108/1/2
f 103/1/2 104/1/2 109/1/2
f 108/2/2 103/2/2 109/2/2
f 104/2/2 105/2/2 110/2/2
f 109/1/2 104/1/2 110/1/2
f 105/1/2 106/1/2 111/1/2
f 110/2/2 105/2/2 111/2/2
f 111/1/2 106/1/2 112/1/2
f 113/3/2 114/3/2 115/3/2
f 115/3/2 114/3/2 116/3/2
f 113/3/2 115/3/2 117/3/2
f 116/3/2 114/3/2 118/3/2
f 113/3/2 117/3/2 119/3/2
f 117/3/2 118/3/2 119/3/2
f 118/3/2 114/3/2 120/3/2
f 119/3/2 118/3/2 120/3/2
f 121/3/2 122/3/2 123/3/2
f 123/3/2 122/3/2 124/3/2
f 121/3/2 123/3/2 125/3/2
f 124/3/2 122/3/2 126/3/2
f 121/3/2 125/3/2 127/3/2
f 125/3/2 126/3/2 127/3/2
f 126/3/2 122/3/2 128/3/2
f 127/3/2 126/3/2 128/3/2
f 131/3/3 130/3/3 129/3/3
f 132/3/3 130/3/3 131/3/3
f 133/3/3 131/3/3 129/3/3
f 134/3/3 130/3/3 132/3/3
f 135/3/3 133/3/3 129/3/3
f 135/3/3 134/3/3 133/3/3
f 136/3/3 130/3/3 134/3/3
f 136/3/3 134/3/3 135/3/3
f 139/3/3 138/3/3 137/3/3
f 140/3/3 138/3/3 139/3/3
f 141/3/3 139/3/3 137/3/3
f 142/3/3 138/3/3 140/3/3
f 143/3/3 141/3/3 137/3/3
f 143/3/3 142/3/3 141/3/3
f 144/3/3 138/3/3 142/3/3
f 144/3/3 142/3/3 143/3/3
f 147/1/3 146/1/3 145/1/3
f 148/1/3 146/1/3 147/1/3
f 149/2/3 148/2/3 147/2/3
f 150/2/3 148/2/3 149/2/3
f 151/1/3 150/1/3 149/1/3
f 152/1/3 150/1/3 151/1/3
f 153/2/3 152/2/3 151/2/3
f 154/2/3 152/2/3 153/2/3
f 155/1/3 154/1/3 153/1/3
f 156/1/3 154/1/3 155/1/3
f 159/3/3 158/3/3 157/3/3
f 160/3/3 158/3/3 159/3/3
f 165/3/3 162/3/3 161/3/3
f 166/3/3 164/3/3 163/3/3
f 167/3/3 165/3/3 161/3/3
f 168/3/3 164/3/3 166/3/3
f 169/3/3 167/3/3 161/3/3
f 170/3/3 167/3/3 169/3/3
f 171/3/3 164/3/3 168/3/3
f 172/3/3 164/3/3 171/3/3
f 175/3/3 174/3/3 173/3/3
f 176/3/3 174/3/3 175/3/3
f 179/3/3 178/3/3 177/3/3
f 180/3/3 178/3/3 179/3/3
f 185/3/3 182/3/3 181/3/3
f 186/3/3 182/3/3 185/3/3
f 187/3/3 184/3/3 183/3/3
f 188/3/3 184/3/3 187/3/3
f 191/3/3 190/3/3 189/3/3
f 192/3/3 190/3/3 191/3/3
f 193/3/4 194/3/4 195/3/4
f 195/3/4 194/3/4 196/3/4
f 197/3/4 198/3/4 201/3/4
f 197/3/4 201/3/4 202/3/4
f 197/3/4 202/3/4 203/3/4
f 203/3/4 202/3/4 204/3/4
f 199/3/4 200/3/4 205/3/4
f 205/3/4 200/3/4 206/3/4
f 207/3/4 208/3/4 209/3/4
f 209/3/4 208/3/4 210/3/4
f 211/3/4 212/3/4 213/3/4
f 213/3/4 212/3/4 214/3/4
f 215/3/4 216/3/4 219/3/4
f 217/3/4 218/3/4 220/3/4
f 215/3/4 219/3/4 221/3/4
f 221/3/4 219/3/4 222/3/4
f 220/3/4 218/3/4 223/3/4
f 221/2/4 222/2/4 224/2/4
f 224/2/4 222/2/4 225/2/4
f 223/3/4 218/3/4 226/3/4
f 226/3/4 218/3/4 227/3/4
f 228/3/4 229/3/4 230/3/4
f 230/3/4 229/3/4 231/3/4
f 232/1/4 233/1/4 234/1/4
f 234/1/4 233/1/4 235/1/4
f 234/2/4 235/2/4 236/2/4
f 236/2/4 235/2/4 237/2/4
f 236/1/4 237/1/4 238/1/4
f 238/1/4 237/1/4 239/1/4
f 238/2/4 239/2/4 240/2/4
f 240/2/4 239/2/4 241/2/4
f 240/1/4 241/1/4 242/1/4
f 242/1/4 241/1/4 243/1/4
f 244/3/4 245/3/4 246/3/4
f 246/3/4 245/3/4 247/3/4
f 244/3/4 246/3/4 248/3/4
f 247/3/4 245/3/4 249/3/4
f 244/3/4 248/3/4 250/3/4
f 248/3/4 249/3/4 250/3/4
f 249/3/4 245/3/4 251/3/4
f 250/3/4 249/3/4 251/3/4
f 252/3/4 253/3/4 254/3/4
f 254/3/4 253/3/4 255/3/4
f 252/3/4 254/3/4 256/3/4
f 255/3/4 253/3/4 257/3/4
f 252/3/4 256/3/4 258/3/4
f 256/3/4 257/3/4 258/3/4
f 257/3/4 253/3/4 259/3/4
f 258/3/4 257/3/4 259/3/4
f 262/3/5 261/3/5 260/3/5
f 263/3/5 261/3/5 262/3/5
f 264/3/5 262/3/5 260/3/5
f 265/3/5 261/3/5 263/3/5
f 266/3/5 264/3/5 260/3/5
f 266/3/5 265/3/5 264/3/5
f 267/3/5 261/3/5 265/3/5
f 267/3/5 265/3/5 266/3/5
f 272/3/5 269/3/5 268/3/5
f 273/2/5 270/2/5 269/2/5
f 273/3/5 269/3/5 272/3/5
f 274/3/5 271/3/5 270/3/5
f 274/2/5 270/2/5 273/2/5
f 275/3/5 272/3/5 268/3/5
f 276/3/5 271/3/5 274/3/5
f 277/3/5 275/3/5 268/3/5
f 277/3/5 276/3/5 275/3/5
f 278/3/5 271/3/5 276/3/5
f 278/3/5 276/3/5 277/3/5
f 283/2/5 280/2/5 279/2/5
f 284/1/5 281/1/5 280/1/5
f 284/2/5 280/2/5 283/2/5
f 285/1/5 281/1/5 284/1/5
f 286/1/5 281/1/5 285/1/5
f 287/2/5 282/2/5 281/2/5
f 287/1/5 281/1/5 286/1/5
f 288/2/5 282/2/5 287/2/5
f 289/1/5 284/1/5 283/1/5
f 289/2/5 285/2/5 284/2/5
f 290/1/5 286/1/5 285/1/5
f 290/2/5 285/2/5 289/2/5
f 291/1/5 286/1/5 290/1/5
f 292/1/5 286/1/5 291/1/5
f 293/2/5 287/2/5 286/2/5
f 293/1/5 286/1/5 292/1/5
f 294/1/5 288/1/5 287/1/5
f 294/2/5 287/2/5 293/2/5
f 295/1/5 290/1/5 289/1/5
f 295/2/5 291/2/5 290/2/5
f 296/1/5 292/1/5 291/1/5
f 296/2/5 291/2/5 295/2/5
f 297/1/5 292/1/5 296/1/5
f 298/1/5 292/1/5 297/1/5
f 299/2/5 293/2/5 292/2/5
f 299/1/5 292/1/5 298/1/5
f 300/1/5 294/1/5 293/1/5
f 300/2/5 293/2/5 299/2/5
f 301/1/5 296/1/5 295/1/5
f 301/2/5 297/2/5 296/2/5
f 302/1/5 298/1/5 297/1/5
f 302/2/5 297/2/5 301/2/5
f 303/1/5 298/1/5 302/1/5
f 304/1/5 298/1/5 303/1/5
f 305/2/5 299/2/5 298/2/5
f 305/1/5 298/1/5 304/1/5
f 306/1/5 300/1/5 299/1/5
f 306/2/5 299/2/5 305/2/5
f 307/1/5 302/1/5 301/1/5
f 307/2/5 303/2/5 302/2/5
f 308/1/5 304/1/5 303/1/5
f 308/2/5 303/2/5 307/2/5
f 309/1/5 304/1/5 308/1/5
f 310/1/5 304/1/5 309/1/5
f 311/2/5 305/2/5 304/2/5
f 311/1/5 304/1/5 310/1/5
f 312/1/5 306/1/5 305/1/5
f 312/2/5 305/2/5 311/2/5
f 313/1/5 308/1/5 307/1/5
f 313/2/5 309/2/5 308/2/5
f 314/1/5 310/1/5 309/1/5
f 314/2/5 309/2/5 313/2/5
f 315/2/5 311/2/5 310/2/5
f 315/1/5 310/1/5 314/1/5
f 316/1/5 312/1/5 311/1/5
f 316/2/5 311/2/5 315/2/5
f 317/1/5 313/1/5 307/1/5
f 317/1/5 314/1/5 313/1/5
f 318/2/5 315/2/5 314/2/5
f 318/1/5 314/1/5 317/1/5
f 319/1/5 316/1/5 315/1/5
f 319/2/5 315/2/5 318/2/5
f 320/1/5 312/1/5 316/1/5
f 320/1/5 316/1/5 319/1/5
f 321/1/5 307/1/5 301/1/5
f 321/1/5 317/1/5 307/1/5
f 322/2/5 318/2/5 317/2/5
f 322/1/5 317/1/5 321/1/5
f 323/1/5 319/1/5 318/1/5
f 323/2/5 318/2/5 322/2/5
f 324/2/5 320/2/5 319/2/5
f 324/1/5 319/1/5 323/1/5
f 325/1/5 312/1/5 320/1/5
f 325/2/5 320/2/5 324/2/5
f 326/1/5 306/1/5 312/1/5
f 326/1/5 312/1/5 325/1/5
f 327/1/5 301/1/5 295/1/5
f 327/1/5 321/1/5 301/1/5
f 328/2/5 322/2/5 321/2/5
f 328/1/5 321/1/5 327/1/5
f 329/1/5 324/1/5 323/1/5
f 329/2/5 322/2/5 328/2/5
f 329/1/5 325/1/5 324/1/5
f 329/1/5 323/1/5 322/1/5
f 330/2/5 326/2/5 325/2/5
f 330/1/5 325/1/5 329/1/5
f 331/1/5 306/1/5 326/1/5
f 331/2/5 326/2/5 330/2/5
f 332/1/5 300/1/5 306/1/5
f 332/1/5 306/1/5 331/1/5
f 333/1/5 295/1/5 289/1/5
f 333/1/5 327/1/5 295/1/5
f 334/2/5 328/2/5 327/2/5
f 334/1/5 327/1/5 333/1/5
f 335/1/5 330/1/5 329/1/5
f 335/2/5 328/2/5 334/2/5
f 335/1/5 331/1/5 330/1/5
f 335/1/5 329/1/5 328/1/5
f 336/2/5 332/2/5 331/2/5
f 336/1/5 331/1/5 335/1/5
f 337/1/5 300/1/5 332/1/5
f 337/2/5 332/2/5 336/2/5
f 338/1/5 294/1/5 300/1/5
f 338/1/5 300/1/5 337/1/5
f 339/1/5 289/1/5 283/1/5
f 339/1/5 333/1/5 289/1/5
f 340/2/5 334/2/5 333/2/5
f 340/1/5 333/1/5 339/1/5
f 341/1/5 336/1/5 335/1/5
f 341/2/5 334/2/5 340/2/5
f 341/1/5 337/1/5 336/1/5
f 341/1/5 335/1/5 334/1/5
f 342/2/5 338/2/5 337/2/5
f 342/1/5 337/1/5 341/1/5
f 343/1/5 294/1/5 338/1/5
f 343/2/5 338/2/5 342/2/5
f 344/1/5 288/1/5 294/1/5
f 344/1/5 294/1/5 343/1/5
f 345/1/5 339/1/5 283/1/5
f 346/2/5 340/2/5 339/2/5
f 346/1/5 339/1/5 345/1/5
f 347/1/5 342/1/5 341/1/5
f 347/2/5 340/2/5 346/2/5
f 347/1/5 343/1/5 342/1/5
f 347/1/5 341/1/5 340/1/5
f 348/2/5 344/2/5 343/2/5
f 348/1/5 343/1/5 347/1/5
f 349/1/5 288/1/5 344/1/5
f 349/2/5 344/2/5 348/2/5
f 350/1/5 288/1/5 349/1/5
f 351/2/5 346/2/5 345/2/5
f 352/1/5 348/1/5 347/1/5
f 352/2/5 346/2/5 351/2/5
f 352/1/5 347/1/5 346/1/5
f 352/1/5 349/1/5 348/1/5
f 353/2/5 350/2/5 349/2/5
f 353/1/5 349/1/5 352/1/5
f 354/2/5 350/2/5 353/2/5
f 357/3/5 356/3/5 355/3/5
f 358/3/5 356/3/5 357/3/5
f 359/3/5 356/3/5 358/3/5
f 360/3/5 356/3/5 359/3/5
f 361/3/5 356/3/5 360/3/5
f 362/3/5 356/3/5 361/3/5
f 367/3/5 364/3/5 363/3/5
f 368/3/5 366/3/5 365/3/5
f 369/3/5 367/3/5 363/3/5
f 370/3/5 366/3/5 368/3/5
f 371/3/5 369/3/5 363/3/5
f 372/3/5 366/3/5 370/3/5
f 373/3/5 371/3/5 363/3/5
f 374/3/5 366/3/5 372/3/5
f 375/3/5 373/3/5 363/3/5
f 376/3/5 373/3/5 375/3/5
f 377/3/5 366/3/5 374/3/5
f 378/3/5 366/3/5 377/3/5
f 385/3/5 380/3/5 379/3/5
f 385/3/5 384/3/5 383/3/5
f 385/3/5 383/3/5 382/3/5
f 385/3/5 382/3/5 381/3/5
f 385/3/5 381/3/5 380/3/5
f 386/3/5 384/3/5 385/3/5
f 389/3/5 388/3/5 387/3/5
f 390/3/5 388/3/5 389/3/5
f 395/3/5 392/3/5 391/3/5
f 396/3/5 392/3/5 395/3/5
f 397/3/5 394/3/5 393/3/5
f 398/3/5 394/3/5 397/3/5
f 401/3/5 400/3/5 399/3/5
f 402/3/5 400/3/5 401/3/5
f 403/3/6 404/3/6 405/3/6
f 405/3/6 404/3/6 406/3/6
f 407/3/6 408/3/6 411/3/6
f 411/3/6 408/3/6 412/3/6
f 409/3/6 410/3/6 413/3/6
f 413/3/6 410/3/6 414/3/6
f 415/3/6 416/3/6 417/3/6
f 417/3/6 416/3/6 418/3/6
f 419/3/6 420/3/6 421/3/6
f 421/3/6 420/3/6 422/3/6
f 422/3/6 420/3/6 423/3/6
f 423/3/6 420/3/6 424/3/6
f 424/3/6 420/3/6 425/3/6
f 425/3/6 420/3/6 426/3/6
f 427/3/6 428/3/6 431/3/6
f 429/3/6 430/3/6 432/3/6
f 427/3/6 431/3/6 433/3/6
f 432/3/6 430/3/6 434/3/6
f 427/3/6 433/3/6 435/3/6
f 434/3/6 430/3/6 436/3/6
f 427/3/6 435/3/6 437/3/6
f 436/3/6 430/3/6 438/3/6
f 427/3/6 437/3/6 439/3/6
f 439/3/6 437/3/6 440/3/6
f 438/3/6 430/3/6 441/3/6
f 441/3/6 430/3/6 442/3/6
f 443/3/6 444/3/6 449/3/6
f 447/3/6 448/3/6 449/3/6
f 446/3/6 447/3/6 449/3/6
f 445/3/6 446/3/6 449/3/6
f 444/3/6 445/3/6 449/3/6
f 449/3/6 448/3/6 450/3/6
f 451/2/6 452/2/6 455/2/6
f 452/1/6 453/1/6 456/1/6
f 455/2/6 452/2/6 456/2/6
f 456/1/6 453/1/6 457/1/6
f 457/1/6 453/1/6 458/1/6
f 453/2/6 454/2/6 459/2/6
f 458/1/6 453/1/6 459/1/6
f 459/2/6 454/2/6 460/2/6
f 455/1/6 456/1/6 461/1/6
f 456/2/6 457/2/6 461/2/6
f 457/1/6 458/1/6 462/1/6
f 461/2/6 457/2/6 462/2/6
f 462/1/6 458/1/6 463/1/6
f 463/1/6 458/1/6 464/1/6
f 458/2/6 459/2/6 465/2/6
f 464/1/6 458/1/6 465/1/6
f 459/1/6 460/1/6 466/1/6
f 465/2/6 459/2/6 466/2/6
f 461/1/6 462/1/6 467/1/6
f 462/2/6 463/2/6 467/2/6
f 463/1/6 464/1/6 468/1/6
f 467/2/6 463/2/6 468/2/6
f 468/1/6 464/1/6 469/1/6
f 469/1/6 464/1/6 470/1/6
f 464/2/6 465/2/6 471/2/6
f 470/1/6 464/1/6 471/1/6
f 465/1/6 466/1/6 472/1/6
f 471/2/6 465/2/6 472/2/6
f 467/1/6 468/1/6 473/1/6
f 468/2/6 469/2/6 473/2/6
f 469/1/6 470/1/6 474/1/6
f 473/2/6 469/2/6 474/2/6
f 474/1/6 470/1/6 475/1/6
f 475/1/6 470/1/6 476/1/6
f 470/2/6 471/2/6 477/2/6
f 476/1/6 470/1/6 477/1/6
f 471/1/6 472/1/6 478/1/6
f 477/2/6 471/2/6 478/2/6
f 473/1/6 474/1/6 479/1/6
f 474/2/6 475/2/6 479/2/6
f 475/1/6 476/1/6 480/1/6
f 479/2/6 475/2/6 480/2/6
f 480/1/6 476/1/6 481/1/6
f 481/1/6 476/1/6 482/1/6
f 476/2/6 477/2/6 483/2/6
f 482/1/6 476/1/6 483/1/6
f 477/1/6 478/1/6 484/1/6
f 483/2/6 477/2/6 484/2/6
f 479/1/6 480/1/6 485/1/6
f 480/2/6 481/2/6 485/2/6
f 481/1/6 482/1/6 486/1/6
f 485/2/6 481/2/6 486/2/6
f 482/2/6 483/2/6 487/2/6
f 486/1/6 482/1/6 487/1/6
f 483/1/6 484/1/6 488/1/6
f 487/2/6 483/2/6 488/2/6
f 479/1/6 485/1/6 489/1/6
f 485/1/6 486/1/6 489/1/6
f 486/2/6 487/2/6 490/2/6
f 489/1/6 486/1/6 490/1/6
f 487/1/6 488/1/6 491/1/6
f 490/2/6 487/2/6 491/2/6
f 488/1/6 484/1/6 492/1/6
f 491/1/6 488/1/6 492/1/6
f 473/1/6 479/1/6 493/1/6
f 479/1/6 489/1/6 493/1/6
f 489/2/6 490/2/6 494/2/6
f 493/1/6 489/1/6 494/1/6
f 490/1/6 491/1/6 495/1/6
f 494/2/6 490/2/6 495/2/6
f 491/2/6 492/2/6 496/2/6
f 495/1/6 491/1/6 496/1/6
f 492/1/6 484/1/6 497/1/6
f 496/2/6 492/2/6 497/2/6
f 484/1/6 478/1/6 498/1/6
f 497/1/6 484/1/6 498/1/6
f 467/1/6 473/1/6 499/1/6
f 473/1/6 493/1/6 499/1/6
f 493/2/6 494/2/6 500/2/6
f 499/1/6 493/1/6 500/1/6
f 495/1/6 496/1/6 501/1/6
f 500/2/6 494/2/6 501/2/6
f 496/1/6 497/1/6 501/1/6
f 494/1/6 495/1/6 501/1/6
f 497/2/6 498/2/6 502/2/6
f 501/1/6 497/1/6 502/1/6
f 498/1/6 478/1/6 503/1/6
f 502/2/6 498/2/6 503/2/6
f 478/1/6 472/1/6 504/1/6
f 503/1/6 478/1/6 504/1/6
f 461/1/6 467/1/6 505/1/6
f 467/1/6 499/1/6 505/1/6
f 499/2/6 500/2/6 506/2/6
f 505/1/6 499/1/6 506/1/6
f 501/1/6 502/1/6 507/1/6
f 506/2/6 500/2/6 507/2/6
f 502/1/6 503/1/6 507/1/6
f 500/1/6 501/1/6 507/1/6
f 503/2/6 504/2/6 508/2/6
f 507/1/6 503/1/6 508/1/6
f 504/1/6 472/1/6 509/1/6
f 508/2/6 504/2/6 509/2/6
f 472/1/6 466/1/6 510/1/6
f 509/1/6 472/1/6 510/1/6
f 455/1/6 461/1/6 511/1/6
f 461/1/6 505/1/6 511/1/6
f 505/2/6 506/2/6 512/2/6
f 511/1/6 505/1/6 512/1/6
f 507/1/6 508/1/6 513/1/6
f 512/2/6 506/2/6 513/2/6
f 508/1/6 509/1/6 513/1/6
f 506/1/6 507/1/6 513/1/6
f 509/2/6 510/2/6 514/2/6
f 513/1/6 509/1/6 514/1/6
f 510/1/6 466/1/6 515/1/6
f 514/2/6 510/2/6 515/2/6
f 466/1/6 460/1/6 516/1/6
f 515/1/6 466/1/6 516/1/6
f 455/1/6 511/1/6 517/1/6
f 511/2/6 512/2/6 518/2/6
f 517/1/6 511/1/6 518/1/6
f 513/1/6 514/1/6 519/1/6
f 518/2/6 512/2/6 519/2/6
f 514/1/6 515/1/6 519/1/6
f 512/1/6 513/1/6 519/1/6
f 515/2/6 516/2/6 520/2/6
f 519/1/6 515/1/6 520/1/6
f 516/1/6 460/1/6 521/1/6
f 520/2/6 516/2/6 521/2/6
f 521/1/6 460/1/6 522/1/6
f 517/2/6 518/2/6 523/2/6
f 519/1/6 520/1/6 524/1/6
f 523/2/6 518/2/6 524/2/6
f 518/1/6 519/1/6 524/1/6
f 520/1/6 521/1/6 524/1/6
f 521/2/6 522/2/6 525/2/6
f 524/1/6 521/1/6 525/1/6
f 525/2/6 522/2/6 526/2/6
f 527/3/6 528/3/6 529/3/6
f 529/3/6 528/3/6 530/3/6
f 527/3/6 529/3/6 531/3/6
f 530/3/6 528/3/6 532/3/6
f 527/3/6 531/3/6 533/3/6
f 531/3/6 532/3/6 533/3/6
f 532/3/6 528/3/6 534/3/6
f 533/3/6 532/3/6 534/3/6
f 535/3/6 536/3/6 537/3/6
f 537/3/6 536/3/6 538/3/6
f 535/3/6 537/3/6 539/3/6
f 538/3/6 536/3/6 540/3/6
f 535/3/6 539/3/6 541/3/6
f 539/3/6 540/3/6 541/3/6
f 540/3/6 536/3/6 542/3/6
f 541/3/6 540/3/6 542/3/6
